<?xml version="1.0" standalone="no"?>
<!DOCTYPE svg PUBLIC "-//W3C//DTD SVG 20010904//EN"
 "http://www.w3.org/TR/2001/REC-SVG-20010904/DTD/svg10.dtd">
<svg version="1.0" xmlns="http://www.w3.org/2000/svg"
 width="1024.000000pt" height="1024.000000pt" viewBox="0 0 1024.000000 1024.000000"
 preserveAspectRatio="xMidYMid meet">
<metadata>
Created by potrace 1.16, written by Peter Selinger 2001-2019
</metadata>
<g transform="translate(0.000000,1024.000000) scale(0.100000,-0.100000)"
fill="#000000" stroke="none">
<path d="M2840 7178 l0 -223 28 30 c27 29 28 31 14 70 -8 22 -14 75 -14 118 1
71 4 84 41 152 l40 75 -55 0 -54 0 0 -222z"/>
<path d="M4444 7390 c-5 -5 -21 -11 -34 -14 -14 -2 -25 -5 -25 -7 0 -1 -9 -3
-20 -5 -11 -1 -72 -18 -135 -37 -63 -19 -141 -40 -173 -47 -45 -10 -56 -17
-52 -29 7 -23 -5 -36 -55 -59 -25 -12 -62 -36 -82 -53 -33 -29 -41 -31 -63
-21 -14 6 -25 18 -25 27 0 8 -3 15 -7 15 -5 0 -48 -31 -98 -68 -72 -54 -95
-78 -117 -122 -28 -54 -48 -72 -135 -128 -31 -19 -43 -33 -43 -50 0 -34 -15
-56 -82 -125 -33 -34 -71 -80 -85 -101 -14 -21 -43 -57 -65 -79 -44 -45 -75
-106 -84 -170 -7 -45 -59 -147 -93 -184 -12 -12 -21 -27 -21 -33 0 -5 -3 -10
-8 -10 -4 0 -18 -18 -32 -40 -14 -22 -28 -40 -31 -40 -4 0 -14 -18 -23 -40
-14 -36 -16 -125 -16 -797 0 -768 0 -777 37 -863 23 -53 62 -170 57 -170 -7 0
76 -154 95 -175 10 -11 33 -42 51 -70 19 -27 45 -59 59 -70 47 -37 100 -100
112 -130 6 -16 15 -37 20 -45 5 -8 25 -47 44 -87 19 -39 51 -87 71 -105 47
-43 136 -131 150 -149 19 -23 85 -79 94 -79 5 0 39 -24 77 -52 37 -29 113 -76
168 -104 55 -28 116 -60 135 -72 80 -47 110 -61 170 -76 34 -9 76 -23 94 -30
17 -8 49 -20 71 -27 22 -6 49 -18 60 -25 16 -12 154 -14 770 -14 735 0 752 0
790 20 44 23 122 47 145 45 18 -1 11 -5 310 166 14 8 27 17 30 20 3 3 44 24
91 47 63 31 98 55 128 90 22 26 51 58 64 73 58 62 205 245 237 293 19 30 51
71 70 93 57 64 80 93 75 93 -3 0 8 21 24 48 16 26 39 72 51 102 11 30 24 64
29 75 5 11 15 35 22 53 6 19 17 39 23 45 7 7 23 30 36 52 13 22 33 49 43 60
10 11 29 43 42 72 l25 52 0 803 c0 692 -2 807 -15 824 -8 10 -15 29 -15 41 0
12 -4 23 -8 25 -4 2 -21 50 -36 108 -16 58 -30 107 -32 109 -2 2 -10 -4 -19
-13 -9 -9 -19 -16 -23 -16 -19 1 -36 22 -38 47 -1 15 -2 40 -3 54 0 15 -18 44
-45 71 -43 45 -64 83 -52 95 7 7 -21 46 -68 96 -20 20 -36 41 -36 46 0 5 -37
42 -82 81 -46 40 -88 83 -93 96 -17 38 -57 75 -102 96 -47 21 -67 48 -58 78 4
14 2 20 -8 20 -16 0 -114 67 -155 105 -27 26 -116 71 -207 106 -27 10 -75 37
-105 58 -62 45 -158 94 -239 122 -51 18 -93 19 -786 19 -459 0 -735 -4 -741
-10z m2102 -3697 c-9 -10 -35 6 -47 28 l-11 22 31 -23 c18 -12 30 -24 27 -27z
m-2886 -38 c13 -14 21 -25 18 -25 -2 0 -15 11 -28 25 -13 14 -21 25 -18 25 2
0 15 -11 28 -25z m117 -103 c-10 -2 -27 4 -38 14 -32 28 -22 35 18 11 29 -17
34 -23 20 -25z m428 -290 c-8 -8 -35 20 -35 37 1 12 5 11 21 -8 11 -13 17 -26
14 -29z"/>
<path d="M6425 7379 c22 -10 46 -19 53 -19 6 0 12 -4 12 -10 0 -5 9 -10 20
-10 11 0 20 -4 20 -10 0 -5 7 -10 16 -10 18 0 51 -22 138 -92 33 -27 66 -48
73 -48 7 0 13 -4 13 -10 0 -6 4 -9 9 -7 5 1 33 -13 63 -32 52 -33 102 -91 155
-183 21 -37 48 -66 114 -123 19 -17 61 -64 94 -105 32 -41 62 -77 66 -80 3 -3
21 -27 38 -54 34 -55 39 -90 15 -124 -8 -12 -12 -26 -9 -32 3 -5 1 -19 -5 -31
-14 -24 -6 -65 13 -72 8 -3 30 0 50 6 l37 12 0 527 0 528 -512 -1 c-511 -1
-513 -1 -473 -20z"/>
<path d="M3820 7333 c0 -12 7 -23 15 -27 13 -5 14 -2 4 17 -17 32 -19 33 -19
10z"/>
<path d="M2840 6509 c0 -129 4 -189 10 -179 5 8 10 29 10 45 0 17 7 40 15 51
8 12 12 24 9 27 -8 8 57 128 73 134 21 8 15 22 -19 39 -18 9 -48 30 -65 47
l-33 31 0 -195z"/>
<path d="M7400 3903 c0 -24 -23 -83 -32 -83 -4 0 -8 -7 -8 -17 0 -31 -108
-210 -150 -248 -12 -11 -41 -49 -64 -85 -24 -36 -57 -80 -74 -98 -17 -18 -47
-56 -68 -85 -20 -28 -53 -65 -72 -82 -19 -16 -54 -56 -78 -88 -24 -32 -63 -75
-88 -95 -45 -37 -64 -48 -166 -96 -30 -14 -80 -42 -110 -61 l-55 -35 488 0
487 0 0 545 c0 300 -2 545 -5 545 -3 0 -5 -8 -5 -17z"/>
<path d="M2840 3351 l0 -521 528 0 527 1 -40 21 c-22 11 -62 32 -90 45 -52 26
-156 91 -165 102 -3 4 -37 28 -76 54 -39 25 -93 70 -120 99 -27 29 -85 86
-129 126 -70 65 -109 112 -131 162 -29 65 -43 99 -49 121 -3 14 -41 62 -84
106 -42 44 -98 108 -124 143 l-47 62 0 -521z"/>
</g>
</svg>
